<svg id="Akun" xmlns="http://www.w3.org/2000/svg" viewBox="0 0 652 644"><defs><style>.cls-1{fill:#282561;}</style></defs><title>user</title><path class="cls-1" d="M321.78,298.5q-3.49,0-7-.26c-1.37-.1-2.75-.36-4.12-.41-.17,0,5.05.82,2.59.32-.89-.18-1.79-.3-2.69-.47a108.71,108.71,0,0,1-16.76-4.9c-2.26-.82,2.39,1.05,2.31,1a9.32,9.32,0,0,0-1.81-.83c-1.19-.59-2.39-1.15-3.56-1.76q-3.8-2-7.41-4.32c-1.29-.83-2.54-1.72-3.8-2.6a10.62,10.62,0,0,0-1.59-1.17c-.07,0,3.69,3.08,2,1.5-2.1-1.92-4.34-3.67-6.38-5.66q-2.82-2.75-5.41-5.72a19.29,19.29,0,0,0-2.52-3c-.06,0,2.81,3.9,1.52,1.95-.48-.73-1-1.42-1.54-2.14-3.32-4.76-5.76-9.83-8.47-14.91-1.11-2.09,1,2.39,1,2.32a11.12,11.12,0,0,0-.73-1.86c-.47-1.25-.93-2.51-1.35-3.78q-1.38-4.15-2.37-8.42-.46-2-.82-4c-.12-.67-.21-1.35-.34-2-.5-2.46.33,2.76.32,2.59-.1-3.23-.61-6.45-.66-9.7-.2-12.36,0-24.74,0-37.1,0-3.42.11-6.82.45-10.23.07-.68.2-1.38.22-2.06,0-.17-.82,5.05-.32,2.59.27-1.33.46-2.69.73-4q.89-4.3,2.18-8.5.69-2.24,1.5-4.44c.3-.82,2-5.11.59-1.65s.4-.75.78-1.55q1-2.08,2.13-4.12,1.91-3.47,4.1-6.77c.73-1.1,1.51-2.15,2.26-3.24,2.06-3-3.12,3.6.12-.11A120.3,120.3,0,0,1,278.89,137a9.72,9.72,0,0,0,1.53-1.25c0-.06-3.9,2.81-1.95,1.52,1.1-.72,2.13-1.55,3.22-2.28q3.55-2.4,7.31-4.47,1.74-1,3.52-1.84c.93-.46,5.58-2.5,2.14-1.07s.82-.28,1.65-.59q2.2-.81,4.44-1.5,3.87-1.19,7.83-2c1.33-.28,2.67-.51,4-.76,3.73-.7-5,.5.14,0a92.32,92.32,0,0,1,16.72-.13c.91.08,5.66.63,1.8.13s.83.19,1.73.36q4.32.82,8.54,2.06c2.57.75,5.09,1.66,7.6,2.59,3.68,1.37-4.34-2.11.12.09,1.39.69,2.78,1.34,4.15,2.07q3.5,1.86,6.83,4,1.66,1.07,3.27,2.21c.53.38,1,.8,1.6,1.16,2.33,1.53-3.49-3-1.44-1.1,4.23,3.87,8.47,7.5,12.22,11.88.56.66,3.39,4.22,1.14,1.29s.48.72,1,1.43q2.45,3.51,4.57,7.24c1.31,2.31,2.45,4.69,3.62,7.07,1.8,3.63-1.6-4.28-.19-.48.62,1.67,1.25,3.34,1.8,5q1.25,3.84,2.15,7.79.46,2,.82,4c.12.67.21,1.35.34,2,.58,2.89-.48-4.86-.25-1.9,1.13,14.14.59,28.42.59,42.6,0,1.57,0,3.13,0,4.7,0,3-.15,6-.45,9-.07.68-.2,1.38-.22,2.06,0,.17.82-5.05.32-2.59-.31,1.56-.54,3.13-.87,4.69q-.85,4-2,7.83-.59,1.92-1.27,3.81c-.33.91-2.26,5.74-.82,2.28s-.4.75-.78,1.55q-.87,1.79-1.81,3.53-2.2,4.06-4.79,7.89c-.74,1.09-1.56,2.12-2.28,3.22-1.29,2,1.58-2,1.52-1.95a9.72,9.72,0,0,0-1.25,1.53C374.86,273.86,373,276,371,278q-2.78,2.78-5.8,5.33c-.5.42-1,.81-1.52,1.25-1.73,1.58,2-1.52,2-1.5-1.46.6-3,2.15-4.29,3q-3.29,2.2-6.77,4.1-1.74,1-3.52,1.84c-.87.43-5.6,2.51-2.14,1.07s-.82.28-1.65.59q-1.89.69-3.8,1.3a91.15,91.15,0,0,1-9.14,2.38c-1.33.28-2.69.46-4,.73-2.47.5,2.76-.33,2.59-.32-.68,0-1.38.16-2.06.22-3,.3-6,.42-9,.45-11.77.09-23,10.29-22.5,22.5s9.89,22.6,22.5,22.5a116.4,116.4,0,0,0,79.61-32.29c21.3-20.42,33.65-48.82,35-78.19.62-13.54.17-27.22.1-40.77a117,117,0,0,0-29.63-77c-19.58-22.21-47.5-34.93-76.7-37.6-29.4-2.69-58.22,7.77-81,25.89-22.42,17.81-37,44.74-40.77,73-2.18,16.23-1.25,32.88-1.25,49.22,0,24.6,6.47,49.11,21.16,69.13,17.13,23.36,42.19,41.08,71,46.37a125.5,125.5,0,0,0,22.5,2.3c11.77,0,23-10.35,22.5-22.5S334.39,298.5,321.78,298.5Z"/><path class="cls-1" d="M322.75,593.5q-11.2,0-22.37-.85-5.52-.42-11-1c-1.82-.21-7.7-1.39-.85-.06-2-.39-4.08-.59-6.11-.91a291.87,291.87,0,0,1-43.46-10.4q-10.51-3.38-20.75-7.55c-.81-.33-1.64-.72-2.47-1,5.55,2,3,1.28,1.7.7-1.62-.72-3.25-1.43-4.86-2.16q-5.44-2.48-10.77-5.18a296.37,296.37,0,0,1-37.33-22.49c-2.87-2-5.69-4.13-8.5-6.24-1.22-.92-2.51-2.66,1.43,1.1-.61-.59-1.41-1.11-2.07-1.63q-2.32-1.85-4.59-3.74-8.35-6.93-16.18-14.46-8.06-7.75-15.52-16.08-3.29-3.68-6.46-7.46-1.69-2-3.35-4.06l-1.65-2.05c-2.19-2.72-.34-.56.68.92-8.41-12.19-17-23.93-24.25-36.92q-5.31-9.57-9.9-19.52Q73,430,71.91,427.55c-.34-.78-.65-1.68-1.06-2.44,2.66,5,1.29,3.09.72,1.69-1.43-3.51-2.82-7-4.13-10.58a292.34,292.34,0,0,1-12.28-43.44q-1.07-5.35-1.95-10.75c-.29-1.8-.56-3.61-.83-5.42-.23-1.55,0-3.91.25,1.89,0-1.14-.29-2.29-.42-3.42q-1.32-11.38-1.76-22.84a295.43,295.43,0,0,1,1.68-44.64c.1-.91.22-1.82.33-2.74.44-3.86-.21,1.52-.27,1.89.3-1.8.52-3.62.8-5.43q1-6.07,2.16-12.1,2.2-11,5.23-21.73t6.81-21.08q1.83-5,3.85-10c.34-.82.7-1.64,1-2.47-.13.33-2.23,5.13-.7,1.7.81-1.82,1.61-3.65,2.44-5.47a295.64,295.64,0,0,1,21.45-38.78c4-6.07,8.23-11.93,12.58-17.74,1.72-2.3-2.91,3.66-1.1,1.43.56-.68,1.09-1.38,1.64-2.06Q110,151,111.71,149q3.57-4.3,7.3-8.47a299,299,0,0,1,31.2-30.12q2-1.69,4.07-3.34l2.06-1.64c2.88-2.33-1.14.89-1.44,1.09,3.25-2.24,6.32-4.76,9.54-7q8.89-6.29,18.22-11.91T201.78,77q4.74-2.4,9.56-4.62,2.42-1.11,4.85-2.19c.79-.35,1.7-.64,2.44-1.06-1.56.88-4.37,1.82-1.07.46a292.65,292.65,0,0,1,42.79-13.81q10.59-2.54,21.36-4.28c1.81-.29,3.61-.55,5.42-.83,3.84-.58-1.53.22-1.89.25.91-.08,1.83-.23,2.73-.34q6.18-.73,12.39-1.21a295,295,0,0,1,44.75,0q5.52.42,11,1l2.74.33c3.86.44-1.52-.21-1.89-.27,2.26.37,4.53.65,6.78,1q10.75,1.74,21.36,4.28a292.65,292.65,0,0,1,42.79,13.81c5.08,2.09-4.25-1.9.76.33,1.62.72,3.24,1.44,4.86,2.18q5.13,2.35,10.17,4.9,9.75,4.93,19.11,10.58T481,99.46c2.87,2,5.69,4.13,8.5,6.24,3,2.23-1.18-.86-1.43-1.1a24.8,24.8,0,0,0,2.07,1.63q2.57,2.05,5.1,4.16a299,299,0,0,1,31.2,30.12q3.51,3.92,6.88,8,1.69,2,3.34,4.07l1.64,2.06c2.48,3.07-2.35-3.13-.69-.92,4.35,5.81,8.6,11.67,12.58,17.74a295.64,295.64,0,0,1,21.45,38.78c.74,1.61,1.45,3.24,2.18,4.86,2.23,5-1.75-4.32.33.76q2.15,5.25,4.11,10.59,3.81,10.41,6.81,21.08t5.23,21.73q1.07,5.35,1.95,10.75c.29,1.81.55,3.61.83,5.42.58,3.84-.22-1.53-.25-1.89.12,1.37.34,2.74.5,4.1A295.43,295.43,0,0,1,595,332.24q-.43,11.45-1.76,22.84c-.11.91-.23,1.82-.33,2.74-.35,3,.7-4.86.26-1.89-.27,1.81-.53,3.62-.81,5.43q-.91,5.73-2.05,11.42a292.34,292.34,0,0,1-12.28,43.44q-1.73,4.7-3.62,9.34c-.33.81-.72,1.64-1,2.47,2-5.55,1.28-3,.7-1.7-.9,2-1.79,4.06-2.72,6.07q-4.59,9.94-9.9,19.52c-7.21,13-15.84,24.73-24.25,36.92.2-.29,3.42-4.32,1.09-1.44l-1.64,2.06q-1.65,2.05-3.34,4.07-3.37,4-6.88,8Q519,509.82,511,517.58q-7.82,7.52-16.18,14.46-2,1.68-4.08,3.33c-.68.55-1.38,1.08-2.06,1.64-2.22,1.82,3.73-2.82,1.43-1.1-3,2.24-6,4.48-9,6.64A296.37,296.37,0,0,1,443.72,565q-4.74,2.4-9.56,4.62-2.42,1.11-4.85,2.19c-.78.34-1.68.65-2.44,1.06,5.62-3,1.94-.82.45-.21q-10.23,4.17-20.75,7.55a291.87,291.87,0,0,1-43.46,10.4c-1.81.29-3.62.55-5.43.81-3,.44,4.88-.61,1.89-.26l-2.74.33q-5.5.64-11,1.07c-7.68.6-15.37.88-23.07.9-11.77,0-23,10.33-22.5,22.5s9.89,22.53,22.5,22.5c64.93-.15,129.77-20.35,182.62-58.25a324.88,324.88,0,0,0,116.31-152.7c22.44-61.42,24.45-130.51,6.44-193.32-17.51-61.06-53.88-117.06-103.06-157.35C473.52,34.65,411,9.19,344.43,4.3,279.75-.46,213.55,15.89,158.27,49.72c-53.76,32.89-98.2,82-124.13,139.59a320.88,320.88,0,0,0-22.23,196.1c12.68,62.49,45.66,121,91.77,164.9C150,594.41,209.76,625,273.14,634.45a334.4,334.4,0,0,0,49.61,4c11.77,0,23-10.35,22.5-22.5S335.36,593.5,322.75,593.5Z"/><path class="cls-1" d="M107.83,511c1.77-2.37-4.35,5.5-2.83,3.66.6-.73,1.17-1.48,1.77-2.21,2.23-2.74,4.55-5.4,6.92-8a302.36,302.36,0,0,1,26.71-26q4.65-4,9.45-7.87l2.24-1.78c3.4-2.71-4,3-1.1.84,1.73-1.3,3.45-2.61,5.2-3.89q11.45-8.39,23.62-15.74a295.39,295.39,0,0,1,28-14.88c2.23-1,4.49-2,6.74-3,3.54-1.57-4.74,1.92-.19.09,1.37-.55,2.73-1.11,4.1-1.64q8.11-3.17,16.4-5.82a264.24,264.24,0,0,1,34.86-8.57c2.78-.49,5.59-.82,8.37-1.32-6.68,1.21-1.22.17.41,0s3.36-.37,5-.54q10-1,20-1.15a301.34,301.34,0,0,1,41.79,2.26l2.35.29c2.6.3-2.09-.29-2.08-.29,1.77.37,3.62.52,5.4.8q4.95.77,9.87,1.69,10,1.85,19.78,4.3a344.1,344.1,0,0,1,36,11.09q4.13,1.53,8.23,3.16l3.72,1.5c4.79,2-4.11-1.81.71.3,5.09,2.23,10.15,4.54,15.15,7a369.14,369.14,0,0,1,51.43,30.59c3.5,2.48,6.92,5.06,10.35,7.63,2.8,2.09-4.41-3.46-1.71-1.32l2.07,1.62q2.32,1.83,4.6,3.71,7.44,6.1,14.53,12.61c5.19,4.78,10,9.82,14.92,14.9.21.22.41.46.61.69,7.71,8.95,24,8.5,31.82,0,8.75-9.53,8.22-22.27,0-31.82-13-15.09-29.08-27.8-44.85-39.79a379.31,379.31,0,0,0-119.5-60.8c-54.53-16.44-113.58-20.41-169.1-6.6-44.49,11.07-85.09,33.14-120.78,61.56-16.67,13.27-32.58,28.16-45.76,45-1.36,1.73-2.71,3.46-4,5.22-7.07,9.47-1.85,25.54,8.07,30.78,11.8,6.23,23.24,2,30.78-8.07Z"/></svg>