<svg id="Blog" xmlns="http://www.w3.org/2000/svg" viewBox="0 0 1412 608"><defs><style>.cls-1,.cls-2{fill:#282561;}.cls-2{font-size:358.03px;font-family:Montserrat-SemiBold, Montserrat;font-weight:700;}</style></defs><title>blog</title><path class="cls-1" d="M1110.53,552.94H305a279.83,279.83,0,0,1-29.15-1.56c-1.77-.19-7-.88-2.33-.22-2.44-.35-4.88-.71-7.32-1.12q-8.16-1.37-16.23-3.23a269,269,0,0,1-28.81-8.37c-4.54-1.6-9-3.36-13.48-5.15-3.07-1.23,3.38,1.6.41.16-1.08-.52-2.19-1-3.28-1.46q-3.68-1.66-7.31-3.44a273.07,273.07,0,0,1-25.75-14.36q-6-3.8-11.85-7.91c-1.94-1.37-3.85-2.77-5.76-4.18-.57-.42-3.61-2.72-1.26-.93,2.51,1.91-1.44-1.15-1.92-1.53a276.26,276.26,0,0,1-41.5-41.23c-.91-1.12-4.93-6.36-2-2.43-1.42-1.9-2.85-3.79-4.23-5.72q-4.68-6.5-9-13.27a273.17,273.17,0,0,1-14-24.89c-2.13-4.29-4.06-8.67-6-13,2.17,4.75-.64-1.6-1.17-2.95q-1.65-4.2-3.17-8.45a269,269,0,0,1-8.46-28.78q-1.57-6.71-2.8-13.49-.66-3.64-1.22-7.29c-.19-1.22-.36-2.44-.54-3.67.81,5.67,0-.61-.12-1.4a273.1,273.1,0,0,1,0-60.15c.14-1.23.31-2.46.44-3.7-.51,4.86-.22,1.51-.06.46.38-2.44.75-4.87,1.17-7.3q1.34-7.69,3.13-15.3a269,269,0,0,1,8.46-28.78q2.42-6.8,5.2-13.46c-2,4.84.73-1.56,1.33-2.86q1.68-3.67,3.46-7.29A273.61,273.61,0,0,1,94.23,169q3.82-6,7.95-11.82c1.37-1.93,2.79-3.84,4.2-5.75,2.46-3.34.2-.29-.28.32q1.65-2.1,3.32-4.17a276.26,276.26,0,0,1,41.5-41.23l2.79-2.21c-.61.48-3.65,2.73-.32.28,1.91-1.41,3.81-2.82,5.75-4.2q6.17-4.39,12.58-8.43a273.07,273.07,0,0,1,25.75-14.36q3.22-1.58,6.49-3.07c1.3-.6,7.7-3.33,2.86-1.33q7.09-2.93,14.32-5.5a269,269,0,0,1,28.81-8.37q7.16-1.65,14.41-2.92c2.43-.42,4.87-.8,7.3-1.17,1-.16,4.4-.45-.46.06,1.54-.16,3.08-.37,4.62-.54A279.92,279.92,0,0,1,305,53h757.82c15.91,0,31.83,0,47.74,0a279.63,279.63,0,0,1,31,1.77c.92.11,1.85.23,2.77.33-4.87-.52-1.51-.22-.46-.06,2.44.37,4.87.75,7.3,1.17q8.15,1.42,16.19,3.34a269,269,0,0,1,28.74,8.56q3.4,1.22,6.76,2.53l3.35,1.33c.67.27,4.21,1.79,1.47.6s.78.36,1.44.65l3.27,1.48q3.67,1.69,7.28,3.48a273.19,273.19,0,0,1,25.64,14.52q6,3.84,11.8,8c1.93,1.38,3.8,2.85,5.73,4.22,2.67,1.88-2.85-2.34-.33-.26,1.14.94,2.32,1.84,3.47,2.77a276.26,276.26,0,0,1,41.23,41.5c.74.92,1.47,1.86,2.21,2.79-2.9-3.66-.86-1.12-.28-.32,1.4,1.92,2.82,3.81,4.2,5.75q4.64,6.53,8.9,13.33a273,273,0,0,1,13.88,25q1.58,3.22,3.07,6.49c.61,1.34,3.24,7.47,1.33,2.86q3.11,7.5,5.8,15.17a269,269,0,0,1,8.28,28.85q1.53,6.72,2.71,13.52c.42,2.43.8,4.87,1.17,7.3.65,4.29,0,.33-.06-.46.21,1.85.44,3.7.64,5.55a272,272,0,0,1,1.46,29.17,300,300,0,0,1-1.87,31c-.46,4.32,0,.35.09-.45q-.26,1.84-.54,3.67-.56,3.65-1.22,7.29-1.39,7.68-3.23,15.27a269.06,269.06,0,0,1-8.65,28.7q-1.23,3.39-2.56,6.75c-.54,1.37-3.19,7.51-1.17,2.95-2.06,4.65-4.17,9.27-6.45,13.82a273.73,273.73,0,0,1-14.6,25.59q-3.86,6-8,11.77c-1.39,1.92-2.83,3.81-4.23,5.72,2.76-3.75.88-1.12.25-.34-1.12,1.38-2.22,2.78-3.35,4.15a289.71,289.71,0,0,1-41.77,41c-.78.63-3.41,2.51.34-.25-1,.7-1.89,1.43-2.85,2.13q-2.86,2.12-5.77,4.16-6.2,4.35-12.64,8.35a273,273,0,0,1-25.85,14.2q-3.24,1.56-6.51,3l-3.29,1.45c.71-.31,4.3-1.74.4-.17-4.47,1.8-9,3.53-13.51,5.11a269.63,269.63,0,0,1-28,8.07q-7.16,1.66-14.41,2.92-3.19.56-6.39,1c-.74.11-4.68.61-1.6.24s-.88.09-1.62.17a280.77,280.77,0,0,1-31,1.77c-11.77,0-23,10.32-22.5,22.5s9.89,22.54,22.5,22.5c85.94-.3,169.92-38.83,225.11-105a297.82,297.82,0,0,0,64.88-243.48c-14.86-83.62-68.6-158.42-141.65-201.23C1210.92,20.16,1157.3,8,1102.09,8h-794A299.62,299.62,0,0,0,121.89,72.28c-67.58,53-108.73,135.48-111.73,221.2-3,85.44,33.32,170.38,96.76,227.61a298.23,298.23,0,0,0,199.42,76.85q31.76,0,63.52,0h740.67c11.77,0,23-10.35,22.5-22.5S1123.14,552.94,1110.53,552.94Z"/><text class="cls-2" transform="translate(280.35 402.77)">Blog</text></svg>