<svg id="Keranjang" xmlns="http://www.w3.org/2000/svg" viewBox="0 0 726 622"><defs><style>.cls-1{fill:#282561;}</style></defs><title>keranjang</title><path class="cls-1" d="M69.22,233.86H651.5c1.41,0,2.82,0,4.22,0s2.58.11,3.87.17c3,.13-4.77-1-2-.19.85.25,1.73.4,2.58.65.63.18,1.25.42,1.89.6,3.59,1-1.55-.37-1.76-.76.42.78,3.64,2.08,4.47,2.57,2.28,1.34-.5,1.14-1.49-1.2.32.75,1.77,1.59,2.34,2.17s1.11,1.3,1.73,1.87c2,1.85-2.29-4-1.18-1.53a33.88,33.88,0,0,0,2.31,3.82c1.87,3-.67-1.29-.67-1.88a13.69,13.69,0,0,0,.85,2.43c.3,1,1.89,7.39.93,3.37-.9-3.8-.12,1.79-.18,3-.27,5.47,1-3.73,0,.15,0,.1,0,.2-.07.3-.52,2.08-.94,4.2-1.41,6.29l-7.26,32.45L635.53,400.58,610.31,513.35,603,546.17c-.49,2.18-.95,4.36-1.46,6.53l-.08.36c-.22.91-.44,1.81-.71,2.7a24.74,24.74,0,0,0-.9,2.59c.3-1.75,2-4.26.25-1.09-.76,1.37-1.77,2.58-2.53,3.94,2.81-5.05.68-1.36-.9.38-2.36,2.61.84-.84,1.51-1a13.67,13.67,0,0,0-2.18,1.5c-.74.47-1.55.86-2.29,1.34-3.26,2.11,3.65-1.16,1.13-.35a52.26,52.26,0,0,1-5.16,1.51c-5,1.06,3.88,0-.13,0-.44,0-1,0-1.56,0H146.57c-1.11,0-2.22,0-3.33,0a14.88,14.88,0,0,0-2.82-.11c.5-.15,5.55,1.18,1.86.24-.89-.23-1.78-.39-2.67-.63-.65-.18-1.29-.45-1.95-.61-2.8-.68,4.14,2.11,1.61.75-.8-.43-4.5-3.14-5.23-3,1.61-.24,3.52,3.16,1.39,1-.63-.63-1.32-1.21-1.95-1.85a16.23,16.23,0,0,0-1.81-2c.51.33,2.88,4.45,1.09,1.31l-2.36-4.15c-1.43-2.5,1.41,4.36.68,1.55-.3-1.13-.71-2.23-1-3.36-1.35-5.18-2.53-10.41-3.8-15.61L102.9,442,73.58,321.59c-5.7-23.42-11.46-46.83-17.1-70.27-.12-.5-.25-1-.37-1.5l0-.1c-.07-.3-.24-1.08-.31-1.39-.72-3,1.15.19.21,1.86.5-.89-.09-4.24-.05-5.4.11-3.91-1.31,4.88.09.11.24-.83,2.29-6.54.7-2.86s1.12-1.74,1.52-2.47c2.32-4.17-2.67,2.55-.07-.09.79-.8,3.36-2.66,3.66-3.62-.61,2-3.88,2.61-1.48,1.16.74-.45,1.44-1,2.2-1.39a17.17,17.17,0,0,0,2.3-1.23c-.17.38-5.37,1.81-1.73.73,1.5-.45,3-.95,4.51-1.27,1-.22,3.66-1.27.39-.13s0,.16,1.2.14c11.76-.22,23.05-10.19,22.5-22.5-.54-12-9.89-22.74-22.5-22.5-20.75.4-40.63,11.27-50.82,29.67C10.94,232,9.34,247.15,12.78,262c1.57,6.81,3.31,13.59,5,20.39L42.88,385.69,72.17,506c4.84,19.87,9.36,39.84,14.51,59.62,6.91,26.54,31.06,43.84,58.09,43.92,6.53,0,13.06,0,19.58,0H579.12c8.67,0,17.32.2,25.76-2.45,21.93-6.9,36-24.67,40.94-46.55L664,479.21l27.8-124.27,19.46-87c.49-2.18,1-4.35,1.46-6.53,3.12-14.86,1.61-29.86-6-43.21-10.91-19.2-31.43-29.33-53-29.33H69.22c-11.77,0-23,10.35-22.5,22.5S56.61,233.86,69.22,233.86Z"/><path class="cls-1" d="M268.66,19.56,235.14,97.49,182,221.1l-12.19,28.35c-2.49,5.78-4,11-2.27,17.34C169,272,173,277.65,177.85,280.23c9.68,5.12,25.82,3.47,30.78-8.07l33.52-77.94,53.16-123.6,12.19-28.35c2.49-5.78,4-11,2.27-17.34-1.44-5.22-5.47-10.88-10.34-13.45-9.68-5.12-25.82-3.47-30.78,8.07Z"/><path class="cls-1" d="M411.52,42.91,445,120.85l53.16,123.6L510.4,272.8c4.67,10.85,21.44,14.1,30.78,8.07,11.27-7.27,13.07-19.17,8.07-30.78l-33.52-77.94L462.57,48.55,450.38,20.2c-4.67-10.85-21.44-14.1-30.78-8.07-11.27,7.27-13.07,19.17-8.07,30.78Z"/><path class="cls-1" d="M216.15,337.43V505.52c0,11.77,10.35,23,22.5,22.5s22.5-9.89,22.5-22.5V337.43c0-11.77-10.35-23-22.5-22.5s-22.5,9.89-22.5,22.5Z"/><path class="cls-1" d="M339.74,337.43V505.52c0,11.77,10.35,23,22.5,22.5s22.5-9.89,22.5-22.5V337.43c0-11.77-10.35-23-22.5-22.5s-22.5,9.89-22.5,22.5Z"/><path class="cls-1" d="M463.34,337.43V505.52c0,11.77,10.35,23,22.5,22.5s22.5-9.89,22.5-22.5V337.43c0-11.77-10.35-23-22.5-22.5s-22.5,9.89-22.5,22.5Z"/></svg>