<svg id="Layer_10" data-name="Layer 10" xmlns="http://www.w3.org/2000/svg" xmlns:xlink="http://www.w3.org/1999/xlink" viewBox="0 0 1500 1500"><defs><style>.cls-1{fill:none;stroke-miterlimit:10;stroke-width:88px;stroke:url(#linear-gradient);}.cls-2{fill:url(#linear-gradient-2);}</style><linearGradient id="linear-gradient" x1="169.22" y1="757.23" x2="1317" y2="757.23" gradientUnits="userSpaceOnUse"><stop offset="0" stop-color="#282561"/><stop offset="1" stop-color="#282561"/></linearGradient><linearGradient id="linear-gradient-2" x1="462.87" y1="745.08" x2="1034.4" y2="745.08" xlink:href="#linear-gradient"/></defs><title>wa</title><path class="cls-1" d="M1265.86,658.5c53,324.23-195.84,604.5-510.11,604.5a514.9,514.9,0,0,1-253.47-66.26c-41.17-23.19-251.78,55.76-251.78,55.76s86.4-200.54,65.23-234.72a514.83,514.83,0,0,1-77.23-272c0-314.27,280.27-563.08,604.5-510.11C1059.85,271.07,1230.43,441.65,1265.86,658.5Z"/><path class="cls-2" d="M676.9,797.64l-44.06-54.46a54.78,54.78,0,0,1-1.24-67.32l14.82-19.76a54.78,54.78,0,0,0,5.94-55.75L610.79,510c-16.35-35.56-63.65-43-90.12-14.17C484.83,534.86,449.36,591,468,648c34,104,126,239,270,317,142,76.94,273.38,57.55,295.16-42.8a54.62,54.62,0,0,0,1.09-7.6h0a54.78,54.78,0,0,0-31.39-53.6l-71.48-33.49a54.78,54.78,0,0,0-64.51,13.59L850.6,859.74a54.74,54.74,0,0,1-63.42,14.08C756,860,712,836,679.18,800.29,678.39,799.44,677.63,798.55,676.9,797.64Z"/></svg>