<svg id="Warna" xmlns="http://www.w3.org/2000/svg" viewBox="0 0 1063 469"><defs><style>.cls-1{font-size:225px;letter-spacing:0.01em;}.cls-1,.cls-3,.cls-9{fill:#282561;}.cls-1,.cls-3{font-family:Montserrat-SemiBold, Montserrat;font-weight:700;}.cls-2{letter-spacing:0.02em;}.cls-3{font-size:233.31px;}.cls-4,.cls-5,.cls-6{font-size:205px;}.cls-4{letter-spacing:-0.05em;}.cls-5{letter-spacing:-0.04em;}.cls-6{letter-spacing:-0.04em;}.cls-7{fill:#f27baa;}.cls-7,.cls-8,.cls-9{stroke:#282561;stroke-linecap:round;stroke-linejoin:round;stroke-width:15px;}.cls-8{fill:#fff;}</style></defs><title>logo</title><text class="cls-1" transform="translate(349.57 189.09) scale(1.01 1)">P<tspan class="cls-2" x="165.15" y="0">ojok</tspan></text><text class="cls-3" transform="translate(1039.26 189.09)"> <tspan class="cls-4" x="-689.7" y="189">b</tspan><tspan class="cls-5" x="-559.52" y="189">a</tspan><tspan class="cls-6" x="-443.08" y="189">ca.id</tspan></text><path class="cls-7" d="M16.14,26.43H276A14.53,14.53,0,0,1,290.49,41V357.53a8.28,8.28,0,0,1-8.28,8.28H21.75A12.53,12.53,0,0,1,9.22,353.28V33.36A6.93,6.93,0,0,1,16.14,26.43Z"/><path class="cls-8" d="M218.9,413.28,24.27,369.17c-8.78-2-15-10.14-15-19.56V50.6c0-13.85,12.26-24.12,25.13-21.05L228.49,75.7a6.87,6.87,0,0,1,5.15,6.76V400.81C233.63,408.94,226.48,415,218.9,413.28Z"/><path class="cls-9" d="M162.8,458.61,15.43,368.94a13.25,13.25,0,0,1-6.21-11.35L8.53,39.1a7.19,7.19,0,0,1,10.84-6.22l152.15,89.33a12.51,12.51,0,0,1,5.87,10.72v316.8C177.38,457.62,169.28,462.56,162.8,458.61Z"/></svg>