<svg id="Layer_1" data-name="Layer 1" xmlns="http://www.w3.org/2000/svg" viewBox="0 0 1500 510"><defs><style>.cls-1{font-size:227.48px;fill:#272361;font-family:Montserrat-Bold, Montserrat;font-weight:700;}.cls-2{letter-spacing:0.04em;}.cls-3{letter-spacing:0.05em;}.cls-4{font-size:233.31px;}.cls-5{font-size:209.98px;letter-spacing:-0.04em;}.cls-6{letter-spacing:-0.03em;}.cls-7{letter-spacing:-0.03em;}.cls-8{fill:#f27baa;}.cls-10,.cls-8,.cls-9{stroke:#282561;stroke-linecap:round;stroke-linejoin:round;stroke-width:15px;}.cls-9{fill:#fff;}.cls-10,.cls-11{fill:#282561;}</style></defs><title>Logo gepeng</title><text class="cls-1" transform="translate(509.57 216.09)"><tspan class="cls-2">P</tspan><tspan class="cls-3" x="176.3" y="0">ojok</tspan><tspan class="cls-4" x="743.41" y="0"> </tspan><tspan class="cls-5"><tspan x="0" y="192.06">b</tspan><tspan class="cls-6" x="136.28" y="192.06">a</tspan><tspan class="cls-7" x="260.38" y="192.06">ca.id</tspan></tspan></text><path class="cls-8" d="M168.25,53.43H430A14.53,14.53,0,0,1,444.49,68V384.53a8.28,8.28,0,0,1-8.28,8.28H175.75a12.53,12.53,0,0,1-12.53-12.53V58.46a5,5,0,0,1,5-5Z"/><path class="cls-9" d="M372.9,440.28,178.27,396.17c-8.78-2-15-10.14-15-19.56V77.6c0-13.85,12.26-24.12,25.13-21.05L382.49,102.7a6.87,6.87,0,0,1,5.15,6.76V427.81C387.63,435.94,380.48,442,372.9,440.28Z"/><path class="cls-10" d="M316.8,485.61,169.43,395.94a13.25,13.25,0,0,1-6.21-11.35v-321c0-5.85,6-9.51,10.81-6.59l151.49,92.18a12.51,12.51,0,0,1,5.87,10.72v316.8C331.38,484.62,323.28,489.56,316.8,485.61Z"/><rect class="cls-11" x="1467.5" y="0.5" width="33" height="509" rx="16.5" ry="16.5"/></svg>