<svg id="Warna" xmlns="http://www.w3.org/2000/svg" viewBox="0 0 1063 469"><defs><style>.cls-1,.cls-4{fill:#282561;}.cls-2{fill:#f27baa;}.cls-2,.cls-3,.cls-4{stroke:#282561;stroke-linecap:round;stroke-linejoin:round;stroke-width:15px;}.cls-3{fill:#fff;}</style></defs><title>logo</title><path class="cls-1" d="M472.4,38.34q15.34,6.75,23.52,19.35t8.18,29.92q0,17.1-8.18,29.81T472.4,136.89q-15.34,6.75-36,6.75H400.47v45.45H370.93V31.59h65.45Q457.05,31.59,472.4,38.34Zm-8.07,72.45q10-8.1,10-23.18t-10-23.17q-10-8.1-29.32-8.1H400.47v62.55H435Q454.33,118.89,464.33,110.79Z"/><path class="cls-1" d="M556.37,182.79a57.72,57.72,0,0,1-23.07-21.94A61.45,61.45,0,0,1,525,129q0-17.77,8.29-31.72a58,58,0,0,1,23.07-21.83,69.42,69.42,0,0,1,33.18-7.87q18.63,0,33.41,7.88A58,58,0,0,1,646,97.29q8.29,14,8.29,31.72A61.48,61.48,0,0,1,646,160.86,57.75,57.75,0,0,1,623,182.79q-14.77,7.88-33.41,7.88A69.38,69.38,0,0,1,556.37,182.79Zm59.08-26.55Q625.68,145.9,625.68,129t-10.23-27.22q-10.23-10.35-25.91-10.35t-25.79,10.35Q553.64,112.15,553.64,129t10.11,27.23q10.11,10.35,25.79,10.35T615.45,156.24Z"/><path class="cls-1" d="M646.36,227.34l8.18-20.92q6.36,4.72,16.59,4.72,8,0,12.16-4.84t4.2-14.29V68.94h28.41v122.4q0,20-11.14,31.5t-31.13,11.47Q655.68,234.32,646.36,227.34Zm42.27-183a15.72,15.72,0,0,1-5.23-12,15.73,15.73,0,0,1,5.23-12,18.35,18.35,0,0,1,13-4.84,18.89,18.89,0,0,1,13,4.61,14.81,14.81,0,0,1,5.23,11.59,16.88,16.88,0,0,1-5.11,12.49,17.79,17.79,0,0,1-13.07,5.06A18.34,18.34,0,0,1,688.62,44.31Z"/><path class="cls-1" d="M779.07,182.79A57.72,57.72,0,0,1,756,160.86,61.45,61.45,0,0,1,747.71,129q0-17.77,8.29-31.72a58,58,0,0,1,23.07-21.83,69.42,69.42,0,0,1,33.18-7.87q18.63,0,33.41,7.88a58,58,0,0,1,23.07,21.83Q877,111.25,877,129a61.48,61.48,0,0,1-8.29,31.84,57.75,57.75,0,0,1-23.07,21.94q-14.77,7.88-33.41,7.88A69.38,69.38,0,0,1,779.07,182.79Zm59.08-26.55Q848.38,145.9,848.38,129t-10.23-27.22q-10.23-10.35-25.91-10.35t-25.79,10.35Q776.34,112.15,776.34,129t10.11,27.23q10.11,10.35,25.79,10.35T838.15,156.24Z"/><path class="cls-1" d="M958.37,137.57l-21.13,19.8v31.73H908.83v-167h28.41v100.8l58.86-54h34.09l-50.68,50.4,55.45,69.75h-34.54Z"/><path class="cls-1" d="M455.66,274.36A50.3,50.3,0,0,1,475.44,294q7.17,12.71,7.17,29.31t-7.17,29.42a50.07,50.07,0,0,1-19.78,19.78,58.1,58.1,0,0,1-28.6,7,53,53,0,0,1-20.6-3.89A39.58,39.58,0,0,1,390.77,364v14.14h-24.4V226H392v56a43,43,0,0,1,15.48-10.87,50.71,50.71,0,0,1,19.58-3.69A58.13,58.13,0,0,1,455.66,274.36Zm-8.2,73.8q9.12-9.43,9.12-24.81t-9.12-24.8q-9.12-9.43-23.27-9.43a33,33,0,0,0-16.6,4.2,30.39,30.39,0,0,0-11.69,12,39.95,39.95,0,0,0,0,36.08,30.35,30.35,0,0,0,11.69,12,33,33,0,0,0,16.6,4.2Q438.33,357.59,447.46,348.17Z"/><path class="cls-1" d="M575.38,279q12.81,11.58,12.81,35v64.17H564V364.77a29.81,29.81,0,0,1-13.43,11q-8.72,3.79-21,3.79a51.51,51.51,0,0,1-21.53-4.2,33.23,33.23,0,0,1-14.25-11.68,29.63,29.63,0,0,1-5-16.91q0-14.76,11-23.68t34.54-8.92h28.29V312.5q0-11.48-6.87-17.63t-20.4-6.15a58.92,58.92,0,0,0-18.14,2.87,44.63,44.63,0,0,0-15.07,8l-10-18.66a62.24,62.24,0,0,1,20.71-10,92.16,92.16,0,0,1,25.63-3.49Q562.56,267.39,575.38,279ZM552,356.47a24,24,0,0,0,10.56-12.61V331.15H536.12q-22.14,0-22.14,14.56a13.06,13.06,0,0,0,5.53,11.07q5.54,4.1,15.38,4.1A33.08,33.08,0,0,0,552,356.47Z"/><path class="cls-1" d="M632.67,372.35a52.65,52.65,0,0,1-21.12-20,59.06,59.06,0,0,1,0-57.91,53.08,53.08,0,0,1,21-19.89q13.42-7.17,30.65-7.17,16.19,0,28.39,6.56A42.59,42.59,0,0,1,710,292.81l-19.68,11.48a31.3,31.3,0,0,0-11.79-11.38A32.25,32.25,0,0,0,663,289.13q-14.35,0-23.78,9.33t-9.43,24.91q0,15.58,9.33,24.91T663,357.59a32.2,32.2,0,0,0,15.48-3.79,31.25,31.25,0,0,0,11.79-11.38L710,353.9a44.37,44.37,0,0,1-18.55,19q-12.2,6.66-28.19,6.66A64.14,64.14,0,0,1,632.67,372.35Z"/><path class="cls-1" d="M801.9,279q12.81,11.58,12.81,35v64.17H790.52V364.77a29.81,29.81,0,0,1-13.43,11q-8.72,3.79-21,3.79a51.51,51.51,0,0,1-21.53-4.2,33.22,33.22,0,0,1-14.25-11.68,29.63,29.63,0,0,1-5-16.91q0-14.76,11-23.68t34.54-8.92h28.29V312.5q0-11.48-6.87-17.63t-20.4-6.15a58.92,58.92,0,0,0-18.14,2.87,44.64,44.64,0,0,0-15.07,8l-10-18.66a62.24,62.24,0,0,1,20.71-10,92.16,92.16,0,0,1,25.63-3.49Q789.08,267.39,801.9,279Zm-23.37,77.49a24,24,0,0,0,10.56-12.61V331.15H762.64q-22.14,0-22.14,14.56A13.06,13.06,0,0,0,746,356.77q5.54,4.1,15.38,4.1A33.08,33.08,0,0,0,778.53,356.47Z"/><path class="cls-1" d="M834.8,374.71a17.08,17.08,0,1,1,11.89,4.82A16.34,16.34,0,0,1,834.8,374.71Z"/><path class="cls-1" d="M880.71,246.18a15.11,15.11,0,0,1,0-21.93,16.46,16.46,0,0,1,11.68-4.41,16.94,16.94,0,0,1,11.69,4.2,13.55,13.55,0,0,1,4.71,10.56A15.46,15.46,0,0,1,904.19,246a16,16,0,0,1-11.79,4.61A16.44,16.44,0,0,1,880.71,246.18Zm-1.23,22.45h25.63V378.09H879.48Z"/><path class="cls-1" d="M1036.92,226V378.09h-24.6V364a39.62,39.62,0,0,1-15.68,11.68,53,53,0,0,1-20.6,3.89,57.67,57.67,0,0,1-28.39-7,50.06,50.06,0,0,1-19.78-19.78q-7.18-12.81-7.17-29.42T927.86,294a50.28,50.28,0,0,1,19.78-19.68,57.71,57.71,0,0,1,28.39-7,52.06,52.06,0,0,1,19.89,3.69,40,40,0,0,1,15.38,11.07V226ZM995.72,353.39a30.35,30.35,0,0,0,11.68-12,40,40,0,0,0,0-36.08,30.39,30.39,0,0,0-11.68-12,34.91,34.91,0,0,0-33.21,0,30.39,30.39,0,0,0-11.69,12,40,40,0,0,0,0,36.08,30.35,30.35,0,0,0,11.69,12,34.91,34.91,0,0,0,33.21,0Z"/><path class="cls-2" d="M16.14,26.43H276A14.53,14.53,0,0,1,290.49,41V357.53a8.28,8.28,0,0,1-8.28,8.28H21.75A12.53,12.53,0,0,1,9.22,353.28V33.36A6.93,6.93,0,0,1,16.14,26.43Z"/><path class="cls-3" d="M218.9,413.28,24.27,369.17c-8.78-2-15-10.14-15-19.56V50.6c0-13.85,12.26-24.12,25.13-21.05L228.49,75.7a6.87,6.87,0,0,1,5.15,6.76V400.81C233.63,408.94,226.48,415,218.9,413.28Z"/><path class="cls-4" d="M162.8,458.61,15.43,368.94a13.25,13.25,0,0,1-6.21-11.35L8.53,39.1a7.19,7.19,0,0,1,10.84-6.22l152.15,89.33a12.51,12.51,0,0,1,5.87,10.72v316.8C177.38,457.62,169.28,462.56,162.8,458.61Z"/></svg>