<svg xmlns="http://www.w3.org/2000/svg" viewBox="0 0 1063 469"><defs><style>.cls-1{font-size:225px;letter-spacing:0.01em;}.cls-1,.cls-3{fill:#fff;font-family:Montserrat-SemiBold, Montserrat;font-weight:700;}.cls-2{letter-spacing:0.02em;}.cls-3{font-size:233.31px;}.cls-4,.cls-5,.cls-6{font-size:205px;}.cls-4{letter-spacing:-0.05em;}.cls-5{letter-spacing:-0.04em;}.cls-6{letter-spacing:-0.04em;}.cls-7{fill:none;stroke:#fff;stroke-linecap:round;stroke-linejoin:round;stroke-width:15px;}</style></defs><title>logo white</title><g id="Warna"><text class="cls-1" transform="translate(349.57 189.09) scale(1.01 1)">P<tspan class="cls-2" x="165.15" y="0">ojok</tspan></text><text class="cls-3" transform="translate(1039.26 189.09)"> <tspan class="cls-4" x="-689.7" y="189">b</tspan><tspan class="cls-5" x="-559.52" y="189">a</tspan><tspan class="cls-6" x="-443.08" y="189">ca.id</tspan></text></g><g id="Hitam_Putih" data-name="Hitam Putih"><path class="cls-7" d="M290.49,41V357.53a8.28,8.28,0,0,1-8.28,8.28H233.63V82.47a6.88,6.88,0,0,0-5.14-6.77L34.35,29.55a19.48,19.48,0,0,0-12.93,1.33A21.6,21.6,0,0,0,9.22,50.6V31.46a5,5,0,0,1,5-5H276A14.53,14.53,0,0,1,290.49,41Z"/><path class="cls-7" d="M233.63,82.47V400.81c0,8.13-7.15,14.19-14.73,12.47l-41.52-9.41v-271a12.49,12.49,0,0,0-5.87-10.71L21.42,30.88a19.48,19.48,0,0,1,12.93-1.33L228.49,75.7A6.88,6.88,0,0,1,233.63,82.47Z"/><path class="cls-7" d="M177.38,132.92V449.73c0,7.89-8.1,12.83-14.58,8.88L15.43,368.94a13.26,13.26,0,0,1-6.21-11.35V50.6a21.6,21.6,0,0,1,12.2-19.72l150.09,91.33A12.49,12.49,0,0,1,177.38,132.92Z"/><path class="cls-7" d="M21.42,30.88A21.6,21.6,0,0,0,9.22,50.6v-14c0-5.86,6-9.52,10.8-6.59Z"/></g></svg>