<svg id="Hitam_Putih" data-name="Hitam Putih" xmlns="http://www.w3.org/2000/svg" viewBox="0 0 1500 1500"><defs><style>.cls-1{font-size:227.48px;fill:#fff;font-family:Montserrat-Bold, Montserrat;font-weight:700;}.cls-2{letter-spacing:0.04em;}.cls-3{letter-spacing:0.05em;}.cls-4{font-size:233.31px;}.cls-5{font-size:209.98px;letter-spacing:-0.04em;}.cls-6{letter-spacing:-0.03em;}.cls-7{letter-spacing:-0.03em;}.cls-8{fill:#282561;stroke:#fff;stroke-linecap:round;stroke-linejoin:round;stroke-width:15px;}</style></defs><title>Logo PojokBaca.id TWhite</title><text class="cls-1" transform="translate(519.57 686.09)"><tspan class="cls-2">P</tspan><tspan class="cls-3" x="176.3" y="0">ojok</tspan><tspan class="cls-4" x="743.41" y="0"> </tspan><tspan class="cls-5"><tspan x="0" y="192.06">b</tspan><tspan class="cls-6" x="136.28" y="192.06">a</tspan><tspan class="cls-7" x="260.38" y="192.06">ca.id</tspan></tspan></text><path class="cls-8" d="M178.25,523.43H440A14.53,14.53,0,0,1,454.49,538V854.53a8.28,8.28,0,0,1-8.28,8.28H185.75a12.53,12.53,0,0,1-12.53-12.53V528.46A5,5,0,0,1,178.25,523.43Z"/><path class="cls-8" d="M382.9,910.28,188.27,866.17c-8.78-2-15-10.14-15-19.56v-299c0-13.85,12.26-24.12,25.13-21.05L392.49,572.7a6.87,6.87,0,0,1,5.15,6.76V897.81C397.63,905.94,390.48,912,382.9,910.28Z"/><path class="cls-8" d="M326.8,955.61,179.43,865.94a13.25,13.25,0,0,1-6.21-11.35v-321c0-5.85,6-9.51,10.81-6.59l151.49,92.18a12.51,12.51,0,0,1,5.87,10.72v316.8C341.38,954.62,333.28,959.56,326.8,955.61Z"/></svg>